HIERARCHY
ROOT Hips
{
  OFFSET 279.157 85.6768 304.565
  CHANNELS 6 Xposition Yposition Zposition Zrotation Xrotation Yrotation
  JOINT LeftUpLeg
  {
    OFFSET 8.64259 1.95398 -2.38835
    CHANNELS 3 Zrotation Xrotation Yrotation
    JOINT LeftLeg
    {
      OFFSET 43.7702 0 0
      CHANNELS 3 Zrotation Xrotation Yrotation
      JOINT LeftFoot
      {
        OFFSET 40.6238 0 0
        CHANNELS 3 Zrotation Xrotation Yrotation
        JOINT LeftToeBase
        {
          OFFSET 12.7242 0 0
          CHANNELS 3 Zrotation Xrotation Yrotation
          End Site
          {
            OFFSET 0 0 0
          }
        }
      }
    }
  }
  JOINT RightUpLeg
  {
    OFFSET -8.2249 1.95398 -2.59336
    CHANNELS 3 Zrotation Xrotation Yrotation
    JOINT RightLeg
    {
      OFFSET 43.5653 0 0
      CHANNELS 3 Zrotation Xrotation Yrotation
      JOINT RightFoot
      {
        OFFSET 40.6238 0 0
        CHANNELS 3 Zrotation Xrotation Yrotation
        JOINT RightToeBase
        {
          OFFSET 12.7242 0 0
          CHANNELS 3 Zrotation Xrotation Yrotation
          End Site
          {
            OFFSET 0 0 0
          }
        }
      }
    }
  }
  JOINT Spine
  {
    OFFSET 0.165834 0.87714 6.61349
    CHANNELS 3 Zrotation Xrotation Yrotation
    JOINT Spine1
    {
      OFFSET 7.38963 1.71661e-005 0
      CHANNELS 3 Zrotation Xrotation Yrotation
      JOINT Spine2
      {
        OFFSET 11.9445 1.14441e-005 0
        CHANNELS 3 Zrotation Xrotation Yrotation
        JOINT Spine3
        {
          OFFSET 14.7254 4.19617e-005 0
          CHANNELS 3 Zrotation Xrotation Yrotation
          JOINT Spine4
          {
            OFFSET 10.9679 0 0
            CHANNELS 3 Zrotation Xrotation Yrotation
            JOINT RightShoulder
            {
              OFFSET 2.46616 -1.6653 3.69651
              CHANNELS 3 Zrotation Xrotation Yrotation
              JOINT RightArm
              {
                OFFSET 13.0012 0 0
                CHANNELS 3 Zrotation Xrotation Yrotation
                JOINT RightForeArm
                {
                  OFFSET 28.7848 1.52588e-005 0
                  CHANNELS 3 Zrotation Xrotation Yrotation
                  JOINT RightHand
                  {
                    OFFSET 26.5688 1.52588e-005 0
                    CHANNELS 3 Zrotation Xrotation Yrotation
                    End Site
                    {
                      OFFSET 0 0 0
                    }
                  }
                }
              }
            }
            JOINT LeftShoulder
            {
              OFFSET 2.38034 -1.29275 -3.7523
              CHANNELS 3 Zrotation Xrotation Yrotation
              JOINT LeftArm
              {
                OFFSET 16.3182 6.10351e-005 0
                CHANNELS 3 Zrotation Xrotation Yrotation
                JOINT LeftForeArm
                {
                  OFFSET 27.0901 0 0
                  CHANNELS 3 Zrotation Xrotation Yrotation
                  JOINT LeftHand
                  {
                    OFFSET 24.5451 1.52588e-005 0
                    CHANNELS 3 Zrotation Xrotation Yrotation
                    End Site
                    {
                      OFFSET 0 0 0
                    }
                  }
                }
              }
            }
            JOINT Neck
            {
              OFFSET 5.0226 -0.0266342 0
              CHANNELS 3 Zrotation Xrotation Yrotation
              JOINT Head
              {
                OFFSET 6.69364 2.86102e-005 0
                CHANNELS 3 Zrotation Xrotation Yrotation
                End Site
                {
                  OFFSET 0 0 0
                }
              }
            }
          }
        }
      }
    }
  }
}
MOTION
Frames:	9
Frame Time:	0.0416667
-28.3677 100.571 63.0822 100.492 32.1062 84.4911 -173.631 4.18803 88.9231 -23.7464 6.60686 -1.54353 70.2054 6.15579 1.21999 17.2572 -8.57022 6.12082 177.121 6.99266 90.5836 -22.2875 -17.2488 -2.50704 63.6725 -2.68962 -0.294337 25.5703 0.801422 1.88745 -0.745152 7.65534 -90.271 11.5613 -1.60915 -0.374147 -0.108639 -1.62407 -0.302951 -22.65 -1.42229 -0.840544 -2.63733 -1.42231 -0.840554 93.3105 -29.8869 -100.171 46.226 -1.92103 11.8431 3.9833 -15.4137 -10.9182 -21.6379 0.23509 -10.9032 -84.59 -46.6874 86.4359 -29.6921 -12.5207 -23.0419 20.1594 13.4069 -32.9669 7.84947 -0.983447 -14.3493 -28.4854 1.48209 -1.39654 -8.62442 1.06518 5.51458 
-26.1843 100.968 62.2218 98.9096 33.8179 85.561 -173.932 3.39681 89.3412 -21.8599 7.24741 -0.90312 70.3076 6.69207 0.488563 17.0116 -8.75116 6.18369 176.36 5.71033 90.8269 -20.0886 -16.0391 -1.86784 64.5646 -2.76241 -0.00735476 24.4451 1.0179 2.79238 -0.654459 7.62165 -90.343 11.6274 -1.46253 -0.531731 -0.0428002 -1.48451 -0.466849 -22.5821 -1.23509 -0.946739 -2.56941 -1.23511 -0.946749 94.0534 -28.9884 -98.9154 47.719 -1.86037 11.5235 4.23556 -17.1699 -10.4432 -20.7422 0.0715997 -10.7579 -84.4299 -47.9705 86.8514 -30.2885 -9.5518 -18.7608 19.6326 15.0686 -32.5984 6.02755 -0.802043 -14.0175 -29.1655 1.20128 -1.12561 -8.46994 0.853575 4.64754 
-24.1527 101.202 61.5865 97.5866 33.1197 86.2655 -173.846 1.91024 89.491 -19.5357 6.46194 -0.8295 70.2099 7.05477 0.576938 18.935 -7.70978 6.68295 176.113 4.79404 90.9139 -18.6965 -16.7717 -1.66339 65.2169 -2.88087 0.199609 24.1509 0.985582 3.51995 -0.338097 7.63171 -90.3275 11.6084 -0.825984 -0.567042 -0.0624253 -0.850131 -0.530146 -22.5978 -0.617363 -0.789059 -2.58519 -0.617382 -0.789064 94.0711 -28.7138 -98.95 47.6442 -3.18856 11.246 3.16535 -19.33 -14.3363 -22.7215 0.14287 -11.3315 -84.1587 -47.8929 87.2613 -31.3091 -3.52442 -12.1843 12.782 10.8972 -23.7666 3.6979 -0.473583 -11.6232 -29.9275 1.57389 -1.34227 -8.2755 1.21183 4.67543 
-22.1047 101.225 61.1458 95.9989 33.2143 87.0573 -173.636 1.46735 89.8906 -18.4476 6.9422 -0.869335 71.0502 8.07554 0.478997 18.6026 -8.56532 8.39594 176.088 4.71371 91.3118 -18.3609 -17.6982 -1.44469 65.9411 -3.34837 -1.14541 22.8205 1.42929 3.37539 -0.235104 7.56067 -90.3274 11.7506 -0.621294 -0.587119 0.0797292 -0.646537 -0.559213 -22.455 -0.416144 -0.746697 -2.44234 -0.416139 -0.746706 94.531 -27.5 -98.3207 47.0291 -3.53605 8.9566 1.37767 -20.5776 -17.0224 -23.4751 0.173046 -11.7172 -84.3136 -50.3323 87.3154 -29.8898 2.62737 -4.76102 5.39536 4.69388 -11.423 -1.40813 -0.133251 -9.44273 -31.3872 1.53101 0.294274 -7.60543 1.47197 3.29179 
-20.5223 101.161 61.0188 94.5192 32.3212 87.5105 -173.719 1.48017 89.7104 -17.9454 5.68019 -0.807405 71.2263 8.61576 0.665561 19.8846 -7.80303 8.63339 176.064 5.36114 91.3447 -18.9609 -18.8385 -1.41151 66.9177 -3.90792 -1.68664 21.8951 1.71909 3.38633 -0.0179998 7.59496 -90.2922 11.6831 -0.172755 -0.564254 0.0120497 -0.197411 -0.556118 -22.5221 0.0048034 -0.59009 -2.50946 0.00482664 -0.590089 95.0539 -26.1823 -97.5576 45.6939 -3.75153 6.87289 -0.388417 -20.6228 -20.0157 -25.5648 0.425914 -12.5175 -84.2546 -52.4273 87.6433 -30.7964 2.68163 4.17237 3.329 4.54305 -5.33424 -4.06969 -0.069448 -5.59423 -31.4433 1.50714 1.51039 -7.28395 1.65183 2.6449 
-19.7353 100.884 61.6415 92.0458 32.7852 88.7662 -173.672 5.17864 90.0663 -21.0403 3.40339 -0.799885 72.8438 9.34728 -0.920616 17.9352 -9.21251 8.92228 176.306 8.20756 92.0058 -20.765 -18.2321 -1.10282 67.7263 -4.39812 -2.24612 21.3694 1.85431 3.54279 0.250721 7.72222 -90.2611 11.4304 0.377086 -0.557884 -0.240611 0.352153 -0.573946 -22.7756 0.527311 -0.418766 -2.76291 0.527308 -0.418774 94.3733 -26.8036 -98.8422 41.6464 -3.33223 5.85595 -2.14773 -21.5899 -22.1867 -25.9703 0.243282 -11.8116 -84.2218 -53.044 87.7598 -31.0243 -0.87525 11.5015 4.23036 3.54195 -5.24063 -7.30318 0.00362022 -6.1962 -28.7062 1.3237 0.0850061 -6.9457 1.27499 2.64213 
-20.2687 100.227 62.9624 88.0903 35.2481 90.5205 -174.678 14.1202 89.575 -29.1752 6.83005 -0.396036 71.512 8.48563 -0.261796 19.7484 -8.05688 9.04957 176.263 14.2855 92.066 -24.7609 -16.0027 -0.551121 68.805 -4.85512 -2.55069 21.3437 1.88861 3.41161 0.425764 8.00726 -90.2443 10.861 0.734866 -0.5553 -0.809879 0.70971 -0.587108 -23.3464 0.867791 -0.308751 -3.33372 0.867784 -0.308761 93.518 -26.2897 -100.825 36.7874 -4.51823 3.28546 -0.483464 -19.9105 -19.51 -26.3907 0.303616 -11.4531 -84.8745 -52.19 86.7049 -29.0225 -0.943833 10.7639 4.29825 0.864991 -3.88735 -8.64301 0.0376748 -6.78254 -22.2717 0.60153 -1.26099 -6.85183 0.468898 1.60294 
-21.6179 99.4405 64.7905 81.7323 36.2142 93.9613 -175.815 23.9095 89.4242 -32.7461 10.5385 -0.311134 72.2715 8.2045 -1.79392 23.9065 -6.34212 12.3425 176.392 22.7454 92.3122 -28.2068 -14.6652 -0.00414937 68.9814 -5.16697 -2.59386 21.4658 1.82096 3.55766 0.615572 8.36235 -90.2094 10.1519 1.13114 -0.511124 -1.51869 1.10755 -0.560429 -24.0577 1.23247 -0.147497 -4.04503 1.23244 -0.147507 92.0823 -25.7187 -104.085 30.0597 -5.97129 -1.98802 2.08861 -18.4761 -15.0022 -26.7276 0.116922 -10.0116 -86.5938 -50.6095 83.9331 -26.0007 0.0328418 3.92075 4.51597 1.06839 -3.18872 -4.61384 -0.0761082 -5.10662 -13.0329 -0.521762 -2.66419 -6.53025 -0.487234 0.798117 
-23.1986 98.4874 66.5709 75.3572 35.8397 96.7423 -176.664 32.271 88.6471 -31.4027 10.1536 -0.87313 69.8209 6.6489 -1.23505 22.9112 -6.69624 11.2964 176.073 31.5784 91.8771 -31.8936 -14.9663 0.591785 69.2865 -5.51049 -2.74812 20.9315 1.93535 3.82229 0.683177 8.75949 -90.1009 9.35686 1.31706 -0.298344 -2.31347 1.30265 -0.356039 -24.854 1.34581 0.111351 -4.84132 1.34582 0.111343 90.3268 -25.0853 -108.102 21.7252 -6.47252 -9.46758 4.15076 -21.0495 -10.8408 -25.0163 -0.688747 -6.87451 -89.0762 -49.4865 80.0085 -20.1086 3.2776 -7.40976 3.14888 1.38164 -1.28038 -1.97903 -0.0930301 -5.66797 -4.98061 -0.710314 -1.55868 -6.37008 -0.554247 -0.242077 
